Coordinates
version=1
nRows=10
nColumns=40
inDegrees=yes

Units are S.I. units (second, meters, Newtons, ...)
If the header above contains a line with 'inDegrees', this indicates whether rotational values are in degrees (yes) or radians (no).

endheader
time	pelvis_tilt	pelvis_list	pelvis_rotation	pelvis_tx	pelvis_ty	pelvis_tz	hip_flexion_r	hip_adduction_r	hip_rotation_r	knee_angle_r	knee_angle_r_beta	ankle_angle_r	subtalar_angle_r	mtp_angle_r	hip_flexion_l	hip_adduction_l	hip_rotation_l	knee_angle_l	knee_angle_l_beta	ankle_angle_l	subtalar_angle_l	mtp_angle_l	lumbar_extension	lumbar_bending	lumbar_rotation	arm_flex_r	arm_add_r	arm_rot_r	elbow_flex_r	pro_sup_r	wrist_flex_r	wrist_dev_r	arm_flex_l	arm_add_l	arm_rot_l	elbow_flex_l	pro_sup_l	wrist_flex_l	wrist_dev_l
      2.83000000	    -31.47861269	     -1.76502910	     -3.71316253	     -0.42810080	      0.69170206	     -0.89319050	     87.21468847	     -9.03145008	      1.89561960	     90.43877254	      1.57845435	     33.96256905	      0.00000000	      0.00000000	     89.29705143	    -20.36620499	      7.16277843	     90.91662708	      1.58679449	     33.30339036	      0.00000000	      0.00000000	    -18.73559027	      1.52897710	      4.88423154	      4.87929472	    -53.17639931	     71.40703591	     89.19632524	     86.63085532	      0.00000000	      0.00000000	    -15.57217711	    -48.61388156	     40.41803728	     97.84252095	     87.59505186	      0.00000000	      0.00000000
      2.83500000	    -31.50201524	     -1.74776876	     -3.69212656	     -0.42802486	      0.69163189	     -0.89317036	     87.25294529	     -9.04478159	      1.91863156	     90.46351447	      1.57888618	     33.96181620	      0.00000000	      0.00000000	     89.31702780	    -20.33409121	      7.16997602	     90.93420260	      1.58710124	     33.24737367	      0.00000000	      0.00000000	    -18.73678163	      1.51805231	      4.61348829	      5.54752694	    -53.14430895	     72.12893305	     89.17391936	     86.67245228	      0.00000000	      0.00000000	    -16.19688431	    -48.49867790	     39.70365185	     97.91600977	     87.59860750	      0.00000000	      0.00000000
      2.84000000	    -31.48743719	     -1.80045417	     -3.65428651	     -0.42786904	      0.69169840	     -0.89311337	     87.19263576	     -9.07481388	      1.84181619	     90.44954857	      1.57864243	     33.97590513	      0.00000000	      0.00000000	     89.30704617	    -20.32365453	      7.20533880	     90.91060233	      1.58668934	     33.28221655	      0.00000000	      0.00000000	    -18.76753196	      1.57959520	      4.53825354	      5.78294496	    -53.14784538	     72.39943829	     89.17482958	     86.60768512	      0.00000000	      0.00000000	    -16.31156337	    -48.47179233	     39.58671345	     97.91750638	     87.62639517	      0.00000000	      0.00000000
      2.84500000	    -31.51283992	     -1.75965085	     -3.66110636	     -0.42777103	      0.69172044	     -0.89310000	     87.23159535	     -9.06492330	      1.89405056	     90.45060442	      1.57866086	     33.91765522	      0.00000000	      0.00000000	     89.30021293	    -20.32182415	      7.16368139	     90.89674616	      1.58644750	     33.23872667	      0.00000000	      0.00000000	    -18.74989762	      1.52757597	      5.11561781	      4.26984731	    -53.20920397	     70.78683231	     89.23521162	     85.87896921	      0.00000000	      0.00000000	    -14.97434840	    -48.69716538	     41.03580329	     97.74665700	     87.81981038	      0.00000000	      0.00000000
      2.85000000	    -31.51698004	     -1.85720760	     -3.62277392	     -0.42760035	      0.69173965	     -0.89302673	     87.18292669	     -9.08610250	      1.77867865	     90.46309408	      1.57887884	     33.99772896	      0.00000000	      0.00000000	     89.34388057	    -20.33684452	      7.22040439	     90.88058296	      1.58616540	     33.36225405	      0.00000000	      0.00000000	    -18.78004592	      1.63742233	      4.95060617	      4.62465056	    -53.18431156	     71.06384591	     89.22483162	     86.75602307	      0.00000000	      0.00000000	    -15.40149993	    -48.63877927	     40.59556855	     97.80749652	     87.60222759	      0.00000000	      0.00000000
      2.85500000	    -31.51117242	     -1.78816445	     -3.63253820	     -0.42751415	      0.69174556	     -0.89296230	     87.19637246	     -9.06715186	      1.87550693	     90.48040111	      1.57918091	     33.98675447	      0.00000000	      0.00000000	     89.28415493	    -20.31979671	      7.17686181	     90.87173643	      1.58601100	     33.40907589	      0.00000000	      0.00000000	    -18.81397498	      1.55079414	      4.95036536	      4.65279704	    -53.18865168	     71.14031594	     89.21800187	     86.66320800	      0.00000000	      0.00000000	    -15.47725406	    -48.63920588	     40.43155972	     97.90441935	     87.61802922	      0.00000000	      0.00000000
      2.86000000	    -31.51884481	     -1.81900144	     -3.62170328	     -0.42740221	      0.69180625	     -0.89293192	     87.17287099	     -9.07155227	      1.83623876	     90.45491178	      1.57873604	     34.00473205	      0.00000000	      0.00000000	     89.29428034	    -20.31447373	      7.22091044	     90.88522236	      1.58624637	     33.34153525	      0.00000000	      0.00000000	    -18.82280043	      1.60340546	      4.60144115	      5.71161797	    -53.15903057	     72.32492305	     89.17965193	     86.68967422	      0.00000000	      0.00000000	    -16.22596259	    -48.44872083	     39.61409161	     97.90493946	     87.60122538	      0.00000000	      0.00000000
      2.86500000	    -31.52903711	     -1.81757301	     -3.62266357	     -0.42735684	      0.69184827	     -0.89287294	     87.16947272	     -9.07187350	      1.82732861	     90.45742370	      1.57877988	     34.03524203	      0.00000000	      0.00000000	     89.29393401	    -20.31672569	      7.22475107	     90.87145488	      1.58600608	     33.34977940	      0.00000000	      0.00000000	    -18.83296943	      1.59398911	      4.91191230	      4.96310586	    -53.19918904	     71.51966766	     89.22704317	     86.63462483	      0.00000000	      0.00000000	    -15.46696216	    -48.62500058	     40.44113546	     97.86342795	     87.61121025	      0.00000000	      0.00000000
      2.87000000	    -31.52640628	     -1.86050142	     -3.60147637	     -0.42722361	      0.69186760	     -0.89279784	     87.13834154	     -9.06799927	      1.78621365	     90.44865159	      1.57862677	     34.00380879	      0.00000000	      0.00000000	     89.31577916	    -20.33486566	      7.23537137	     90.89651301	      1.58644343	     33.32713947	      0.00000000	      0.00000000	    -18.88054159	      1.64335211	      4.61805881	      5.64877453	    -53.16766370	     72.22140282	     89.16669931	     86.74618152	      0.00000000	      0.00000000	    -16.21563241	    -48.46179269	     39.59946219	     97.95937811	     87.57634455	      0.00000000	      0.00000000
      2.87500000	    -31.56142793	     -1.83516236	     -3.58277679	     -0.42713448	      0.69185619	     -0.89281488	     87.17966015	     -9.11208152	      1.78708047	     90.46899902	      1.57898190	     34.02727400	      0.00000000	      0.00000000	     89.31753527	    -20.29427532	      7.23519853	     90.85691164	      1.58575226	     33.32310638	      0.00000000	      0.00000000	    -18.84801431	      1.62878048	      4.90909551	      4.94759827	    -53.20990929	     71.53532462	     89.22664683	     86.51350719	      0.00000000	      0.00000000	    -15.42786703	    -48.63399024	     40.50582655	     97.85684129	     87.64459841	      0.00000000	      0.00000000
